<svg xmlns="http://www.w3.org/2000/svg" viewBox="0 0 200 200">
  <defs>
    <linearGradient id="grad" x1="0%" y1="0%" x2="100%" y2="100%">
      <stop offset="0%" style="stop-color:#FF8C00"/>
      <stop offset="50%" style="stop-color:#E91E63"/>
      <stop offset="100%" style="stop-color:#7B1FA2"/>
    </linearGradient>
  </defs>
  <!-- Book shape -->
  <path d="M60 140 Q60 80 100 60 Q140 80 140 140 L100 130 Z" fill="none" stroke="url(#grad)" stroke-width="4" opacity="0.7"/>
  <path d="M40 150 Q40 70 100 45 Q100 45 100 130" fill="none" stroke="url(#grad)" stroke-width="3" opacity="0.5"/>
  <path d="M160 150 Q160 70 100 45 Q100 45 100 130" fill="none" stroke="url(#grad)" stroke-width="3" opacity="0.5"/>
  <!-- Key -->
  <line x1="100" y1="90" x2="100" y2="155" stroke="url(#grad)" stroke-width="5" stroke-linecap="round"/>
  <circle cx="100" cy="75" r="20" fill="none" stroke="url(#grad)" stroke-width="4"/>
  <line x1="100" y1="135" x2="112" y2="135" stroke="url(#grad)" stroke-width="4" stroke-linecap="round"/>
  <line x1="100" y1="145" x2="108" y2="145" stroke="url(#grad)" stroke-width="4" stroke-linecap="round"/>
  <!-- Flame -->
  <path d="M100 58 Q95 45 100 30 Q105 45 100 58" fill="url(#grad)" opacity="0.8"/>
  <path d="M100 55 Q92 38 100 20 Q108 38 100 55" fill="none" stroke="url(#grad)" stroke-width="2" opacity="0.6"/>
</svg>
